<svg width="642.5" height="97.2" viewBox="0 0 642.5 97.2" xmlns="http://www.w3.org/2000/svg"><g id="svgGroup" stroke-linecap="round" fill-rule="evenodd" font-size="9pt" stroke="#000" stroke-width="0.25mm" fill="#000" style="stroke:#000;stroke-width:0.25mm;fill:#000"><path d="M 494 74 L 485 74 L 485 22 L 493.7 22 L 493.7 30.7 Q 496.5 26.5 500.8 23.65 A 17.205 17.205 0 0 1 510.002 20.809 A 20.858 20.858 0 0 1 510.6 20.8 A 20.994 20.994 0 0 1 515.017 21.24 Q 518.003 21.882 520.285 23.463 A 13.128 13.128 0 0 1 520.75 23.8 A 15.751 15.751 0 0 1 526.198 31.489 A 19.154 19.154 0 0 1 526.3 31.8 Q 529.4 27.2 533.65 24 A 15.669 15.669 0 0 1 540.441 21.116 A 21.446 21.446 0 0 1 544.2 20.8 A 21.437 21.437 0 0 1 549.088 21.322 Q 552.674 22.162 555.163 24.351 A 12.994 12.994 0 0 1 556.85 26.15 A 18.992 18.992 0 0 1 560.261 33.422 Q 561 36.472 561 40.1 L 561 74 L 552 74 L 552 40.8 A 19.042 19.042 0 0 0 551.663 37.111 Q 551.227 34.905 550.228 33.161 A 10.982 10.982 0 0 0 549.5 32.05 A 7.974 7.974 0 0 0 543.687 28.754 A 10.678 10.678 0 0 0 542.6 28.7 A 11.926 11.926 0 0 0 535.841 30.827 A 15.996 15.996 0 0 0 534.25 32.05 Q 530.4 35.4 527.5 39.9 L 527.5 74 L 518.5 74 L 518.5 40.8 A 19.042 19.042 0 0 0 518.163 37.111 Q 517.727 34.905 516.728 33.161 A 10.982 10.982 0 0 0 516 32.05 A 7.974 7.974 0 0 0 510.187 28.754 A 10.678 10.678 0 0 0 509.1 28.7 A 12.02 12.02 0 0 0 502.781 30.528 A 16.244 16.244 0 0 0 500.8 31.95 Q 496.9 35.2 494 39.6 L 494 74 Z M 42 74 L 0 74 L 0 4 L 42 4 L 42 12.2 L 9.5 12.2 L 9.5 33.5 L 37.5 33.5 L 37.5 41.5 L 9.5 41.5 L 9.5 65.8 L 42 65.8 L 42 74 Z M 395.2 95.2 L 397.2 87.7 A 9.908 9.908 0 0 0 398.365 88.274 Q 399.187 88.619 400.2 88.9 A 13.514 13.514 0 0 0 402.479 89.317 A 17.358 17.358 0 0 0 404.2 89.4 Q 408.4 89.4 411.7 86.7 A 12.003 12.003 0 0 0 413.633 84.639 Q 415.381 82.328 417.041 78.475 A 58.58 58.58 0 0 0 418 76.1 L 420.3 70.1 L 415.5 70.1 L 395.2 24.4 L 403.2 20.8 L 422.6 64.1 L 437.7 21.2 L 446 24.4 L 426.9 76.6 A 71.728 71.728 0 0 1 424.847 81.686 Q 423.745 84.126 422.578 86.114 A 30.86 30.86 0 0 1 420.6 89.1 A 24.268 24.268 0 0 1 417.722 92.311 Q 415.808 94.079 413.705 95.118 A 14.737 14.737 0 0 1 413.1 95.4 Q 409 97.2 404 97.2 Q 401 97.2 398.75 96.6 Q 396.5 96 395.2 95.2 Z M 642.5 69.1 L 635.7 74.9 L 618.2 53.2 L 600.9 74.7 L 594.5 69.1 L 613 47.6 L 595.2 27 L 602.2 20.9 L 618.3 41.7 L 634.1 21.3 L 640.8 27 L 623.5 47.2 L 642.5 69.1 Z M 127.7 51.7 L 91.3 51.7 A 24.088 24.088 0 0 0 92.439 56.725 Q 93.775 60.538 96.4 63.1 Q 100.6 67.2 107.5 67.2 Q 112 67.2 115.6 66.25 Q 119.2 65.3 122.5 63.8 L 124.6 71.5 A 40.77 40.77 0 0 1 120.265 73.126 A 51.863 51.863 0 0 1 116.5 74.15 A 38.914 38.914 0 0 1 111.408 74.969 A 52.025 52.025 0 0 1 106.4 75.2 A 28.318 28.318 0 0 1 98.654 74.195 A 21.108 21.108 0 0 1 88.65 68.05 A 23.521 23.521 0 0 1 83.445 58.51 Q 82.1 53.845 82.1 48 A 35.359 35.359 0 0 1 82.933 40.178 A 28.84 28.84 0 0 1 85.05 34.05 A 24.642 24.642 0 0 1 90.066 26.968 A 22.887 22.887 0 0 1 93.3 24.35 A 21.048 21.048 0 0 1 103.559 20.878 A 26.205 26.205 0 0 1 105.6 20.8 Q 113.1 20.8 118.05 24.05 Q 123 27.3 125.5 32.8 A 28.185 28.185 0 0 1 127.926 42.664 A 33.434 33.434 0 0 1 128 44.9 A 75.204 75.204 0 0 1 127.709 51.597 A 69.426 69.426 0 0 1 127.7 51.7 Z M 189.2 56.1 L 189.2 31.7 L 180.2 31.7 L 180.2 23.9 L 189.4 23.9 L 191.3 7.5 L 198.2 7.5 L 198.2 23.9 L 212.6 23.9 L 212.6 31.7 L 198.2 31.7 L 198.2 56.8 A 21.559 21.559 0 0 0 198.368 59.596 Q 198.841 63.202 200.65 64.9 Q 203.1 67.2 206.5 67.2 Q 209 67.2 211.25 66.4 Q 213.5 65.6 215.4 64.5 L 217.9 71.7 A 18.546 18.546 0 0 1 216.282 72.556 Q 215.48 72.935 214.534 73.308 A 43.365 43.365 0 0 1 212.5 74.05 Q 209.1 75.2 205.4 75.2 Q 197.9 75.2 193.55 70.25 A 16.116 16.116 0 0 1 190.322 64.348 Q 189.559 61.917 189.315 58.98 A 34.777 34.777 0 0 1 189.2 56.1 Z M 366 56.1 L 366 31.7 L 357 31.7 L 357 23.9 L 366.2 23.9 L 368.1 7.5 L 375 7.5 L 375 23.9 L 389.4 23.9 L 389.4 31.7 L 375 31.7 L 375 56.8 A 21.559 21.559 0 0 0 375.168 59.596 Q 375.641 63.202 377.45 64.9 Q 379.9 67.2 383.3 67.2 Q 385.8 67.2 388.05 66.4 Q 390.3 65.6 392.2 64.5 L 394.7 71.7 A 18.546 18.546 0 0 1 393.082 72.556 Q 392.28 72.935 391.334 73.308 A 43.365 43.365 0 0 1 389.3 74.05 Q 385.9 75.2 382.2 75.2 Q 374.7 75.2 370.35 70.25 A 16.116 16.116 0 0 1 367.122 64.348 Q 366.359 61.917 366.115 58.98 A 34.777 34.777 0 0 1 366 56.1 Z M 175.9 23.9 L 173.2 31.5 A 30.422 30.422 0 0 0 170.296 30.224 A 23.42 23.42 0 0 0 167.85 29.45 A 20.543 20.543 0 0 0 164.807 28.924 A 26.355 26.355 0 0 0 162.2 28.8 A 15.889 15.889 0 0 0 154.947 30.443 A 16.132 16.132 0 0 0 150.45 33.85 Q 145.7 38.9 145.7 47.8 A 25.192 25.192 0 0 0 146.405 53.86 A 21.45 21.45 0 0 0 147.7 57.6 A 18.564 18.564 0 0 0 150.61 62.177 A 16.275 16.275 0 0 0 153.25 64.6 Q 156.8 67.2 161.6 67.2 Q 164.765 67.2 167.168 66.61 A 15.08 15.08 0 0 0 168.1 66.35 Q 170.789 65.503 173.876 63.912 A 49.095 49.095 0 0 0 173.9 63.9 L 176.7 71.5 Q 173.6 73.2 169.75 74.2 Q 165.9 75.2 161 75.2 A 26.803 26.803 0 0 1 153.961 74.31 A 22.074 22.074 0 0 1 148.05 71.75 Q 142.5 68.3 139.5 62.15 Q 136.5 56 136.5 48 Q 136.5 40.5 139.55 34.3 Q 142.6 28.1 148.3 24.45 A 23.067 23.067 0 0 1 157.968 21.029 A 29.608 29.608 0 0 1 161.7 20.8 Q 166.1 20.8 169.45 21.6 Q 172.8 22.4 175.9 23.9 Z M 327.7 23.9 L 325 31.5 A 30.422 30.422 0 0 0 322.096 30.224 A 23.42 23.42 0 0 0 319.65 29.45 A 20.543 20.543 0 0 0 316.607 28.924 A 26.355 26.355 0 0 0 314 28.8 A 15.889 15.889 0 0 0 306.747 30.443 A 16.132 16.132 0 0 0 302.25 33.85 Q 297.5 38.9 297.5 47.8 A 25.192 25.192 0 0 0 298.205 53.86 A 21.45 21.45 0 0 0 299.5 57.6 A 18.564 18.564 0 0 0 302.41 62.177 A 16.275 16.275 0 0 0 305.05 64.6 Q 308.6 67.2 313.4 67.2 Q 316.565 67.2 318.968 66.61 A 15.08 15.08 0 0 0 319.9 66.35 Q 322.589 65.503 325.676 63.912 A 49.095 49.095 0 0 0 325.7 63.9 L 328.5 71.5 Q 325.4 73.2 321.55 74.2 Q 317.7 75.2 312.8 75.2 A 26.803 26.803 0 0 1 305.761 74.31 A 22.074 22.074 0 0 1 299.85 71.75 Q 294.3 68.3 291.3 62.15 Q 288.3 56 288.3 48 Q 288.3 40.5 291.35 34.3 Q 294.4 28.1 300.1 24.45 A 23.067 23.067 0 0 1 309.768 21.029 A 29.608 29.608 0 0 1 313.5 20.8 Q 317.9 20.8 321.25 21.6 Q 324.6 22.4 327.7 23.9 Z M 52 57.7 L 52 0 L 61 0 L 61 56.8 A 20.644 20.644 0 0 0 61.188 59.688 Q 61.65 62.952 63.25 64.8 A 7.363 7.363 0 0 0 67.834 67.276 A 10.724 10.724 0 0 0 69.5 67.4 Q 71.4 67.4 73.25 66.95 A 22.192 22.192 0 0 0 74.713 66.544 Q 75.648 66.247 76.4 65.9 L 78.6 73.2 Q 77.201 73.822 75.288 74.323 A 34.978 34.978 0 0 1 74.15 74.6 A 23.816 23.816 0 0 1 70.995 75.085 A 30.514 30.514 0 0 1 68.3 75.2 A 20.862 20.862 0 0 1 63.41 74.646 A 17.544 17.544 0 0 1 60 73.45 A 12.683 12.683 0 0 1 54.675 68.685 A 15.856 15.856 0 0 1 54.15 67.8 Q 52.416 64.654 52.08 60.012 A 32.105 32.105 0 0 1 52 57.7 Z M 235.9 74 L 226.9 74 L 226.9 22 L 235.6 22 L 235.6 33.3 Q 236.9 30 239.1 27.15 Q 241.3 24.3 244.6 22.55 A 14.817 14.817 0 0 1 249.28 21.026 A 19.459 19.459 0 0 1 252.3 20.8 Q 253.8 20.8 255.3 20.95 A 18.972 18.972 0 0 1 256.355 21.084 Q 256.855 21.162 257.282 21.262 A 8.817 8.817 0 0 1 257.8 21.4 L 255.1 30.7 A 9.763 9.763 0 0 0 252.955 30.088 Q 251.859 29.9 250.6 29.9 A 12.958 12.958 0 0 0 243.97 31.746 A 15.609 15.609 0 0 0 243.55 32 Q 240.222 34.086 238.078 38.442 A 22.927 22.927 0 0 0 238.05 38.5 Q 236.287 42.107 235.97 47.328 A 39.09 39.09 0 0 0 235.9 49.7 L 235.9 74 Z M 275.8 74 L 266.8 74 L 266.8 22 L 275.8 22 L 275.8 74 Z M 348 74 L 339 74 L 339 22 L 348 22 L 348 74 Z M 585.5 74 L 576.5 74 L 576.5 22 L 585.5 22 L 585.5 74 Z M 91.2 44.4 L 119.7 44.4 A 24.355 24.355 0 0 0 119.296 39.815 Q 118.8 37.231 117.696 35.207 A 12.422 12.422 0 0 0 115.9 32.7 A 12.488 12.488 0 0 0 108.939 28.924 A 18.395 18.395 0 0 0 105.4 28.6 A 13.58 13.58 0 0 0 100.288 29.535 A 12.524 12.524 0 0 0 95.8 32.65 Q 92 36.7 91.2 44.4 Z M 266.937 11.288 A 5.973 5.973 0 0 0 271.3 13.1 A 8.175 8.175 0 0 0 272.796 12.969 A 5.647 5.647 0 0 0 275.9 11.35 Q 277.6 9.6 277.6 6.8 A 7.26 7.26 0 0 0 277.6 6.719 A 6.06 6.06 0 0 0 275.75 2.35 A 7.395 7.395 0 0 0 275.692 2.293 A 6.059 6.059 0 0 0 271.3 0.5 A 8.264 8.264 0 0 0 269.644 0.658 A 5.661 5.661 0 0 0 266.7 2.2 A 5.588 5.588 0 0 0 265.229 4.832 A 7.987 7.987 0 0 0 265 6.8 A 5.992 5.992 0 0 0 265.492 9.219 A 6.643 6.643 0 0 0 266.85 11.2 A 7.466 7.466 0 0 0 266.937 11.288 Z M 339.137 11.288 A 5.973 5.973 0 0 0 343.5 13.1 A 8.175 8.175 0 0 0 344.996 12.969 A 5.647 5.647 0 0 0 348.1 11.35 Q 349.8 9.6 349.8 6.8 A 7.26 7.26 0 0 0 349.8 6.719 A 6.06 6.06 0 0 0 347.95 2.35 A 7.395 7.395 0 0 0 347.892 2.293 A 6.059 6.059 0 0 0 343.5 0.5 A 8.264 8.264 0 0 0 341.844 0.658 A 5.661 5.661 0 0 0 338.9 2.2 A 5.588 5.588 0 0 0 337.429 4.832 A 7.987 7.987 0 0 0 337.2 6.8 A 5.992 5.992 0 0 0 337.692 9.219 A 6.643 6.643 0 0 0 339.05 11.2 A 7.466 7.466 0 0 0 339.137 11.288 Z M 576.637 11.288 A 5.973 5.973 0 0 0 581 13.1 A 8.175 8.175 0 0 0 582.496 12.969 A 5.647 5.647 0 0 0 585.6 11.35 Q 587.3 9.6 587.3 6.8 A 7.26 7.26 0 0 0 587.3 6.719 A 6.06 6.06 0 0 0 585.45 2.35 A 7.395 7.395 0 0 0 585.392 2.293 A 6.059 6.059 0 0 0 581 0.5 A 8.264 8.264 0 0 0 579.344 0.658 A 5.661 5.661 0 0 0 576.4 2.2 A 5.588 5.588 0 0 0 574.929 4.832 A 7.987 7.987 0 0 0 574.7 6.8 A 5.992 5.992 0 0 0 575.192 9.219 A 6.643 6.643 0 0 0 576.55 11.2 A 7.466 7.466 0 0 0 576.637 11.288 Z" vector-effect="non-scaling-stroke"/></g></svg>